<svg id="Layer_1" height="512" viewBox="0 0 512 512" width="512" xmlns="http://www.w3.org/2000/svg" xmlns:xlink="http://www.w3.org/1999/xlink" data-name="Layer 1"><linearGradient id="GradientFill_1" gradientUnits="userSpaceOnUse" x1="94.871" x2="495.986" y1="531.598" y2="42.357"><stop offset="0" stop-color="#667abc"/><stop offset=".206" stop-color="#5e82c2"/><stop offset=".528" stop-color="#4998d3"/><stop offset=".924" stop-color="#27bcee"/><stop offset="1" stop-color="#20c4f4"/></linearGradient><path d="m467.118 31.9a21.2 21.2 0 0 1 27 12.836l17.882 50.264-2.821 2.514a75.928 75.928 0 0 0 -25.081 61.53l.41 6h-391.758zm-445.951 157.856h98.173v62.883a12.354 12.354 0 1 0 24.708 0v-62.883h346.043a21.159 21.159 0 0 1 21.142 21.144v53.355l-3.51 1.424a75.392 75.392 0 0 0 0 139.726l3.51 1.415v53.351a21.164 21.164 0 0 1 -21.142 21.151h-346.043v-62.881a12.354 12.354 0 1 0 -24.708 0v62.879h-98.2a21.166 21.166 0 0 1 -21.14-21.151v-53.351l3.5-1.418a75.639 75.639 0 0 0 47.058-69.86 75.637 75.637 0 0 0 -47.058-69.863l-3.5-1.424v-53.353a21.155 21.155 0 0 1 21.057-21.142zm122.881 114.776a12.354 12.354 0 1 0 -24.708 0v62.007a12.354 12.354 0 1 0 24.708 0z" fill="url(#GradientFill_1)" fill-rule="evenodd"/></svg>